<svg width="1024" height="1024" viewBox="0 0 1024 1024" xmlns="http://www.w3.org/2000/svg">
  <defs>
    <linearGradient id="bg" x1="0" y1="0" x2="0" y2="1">
      <stop offset="0" stop-color="#101a45"/>
      <stop offset="0.55" stop-color="#0a1130"/>
      <stop offset="1" stop-color="#060a18"/>
    </linearGradient>
    <linearGradient id="blanket" x1="0" y1="0" x2="0" y2="1">
      <stop offset="0" stop-color="#3ed6f7"/>
      <stop offset="1" stop-color="#1a9fc4"/>
    </linearGradient>
    <linearGradient id="phone" x1="0" y1="0" x2="0" y2="1">
      <stop offset="0" stop-color="#28336b"/>
      <stop offset="1" stop-color="#1b2450"/>
    </linearGradient>
    <radialGradient id="moonglow" cx="0.5" cy="0.5" r="0.5">
      <stop offset="0" stop-color="#ffd76e" stop-opacity="0.35"/>
      <stop offset="1" stop-color="#ffd76e" stop-opacity="0"/>
    </radialGradient>
    <linearGradient id="pillowg" x1="0" y1="0" x2="0" y2="1">
      <stop offset="0" stop-color="#f4f6ff"/>
      <stop offset="1" stop-color="#c9d2f0"/>
    </linearGradient>
  </defs>

  <rect width="1024" height="1024" fill="url(#bg)"/>

  <g opacity="0.9" fill="#ffffff">
    <circle cx="140" cy="150" r="5"/><circle cx="300" cy="90" r="3.5"/>
    <circle cx="700" cy="70" r="4"/><circle cx="920" cy="200" r="5"/>
    <circle cx="850" cy="110" r="3"/><circle cx="90" cy="330" r="3.5"/>
    <circle cx="960" cy="380" r="3.5"/><circle cx="520" cy="60" r="3"/>
    <circle cx="210" cy="240" r="2.5" opacity="0.7"/><circle cx="790" cy="290" r="2.5" opacity="0.7"/>
  </g>

  <circle cx="810" cy="215" r="190" fill="url(#moonglow)"/>
  <g>
    <mask id="crescent">
      <circle cx="810" cy="215" r="98" fill="white"/>
      <circle cx="762" cy="180" r="96" fill="black"/>
    </mask>
    <circle cx="810" cy="215" r="98" fill="#ffd76e" mask="url(#crescent)"/>
  </g>

  <g fill="#5ee0ff" font-family="Arial Rounded MT Bold, Arial, sans-serif" font-weight="bold">
    <text x="300" y="290" font-size="120" transform="rotate(-12 300 290)">Z</text>
    <text x="410" y="200" font-size="86" transform="rotate(-6 410 200)" opacity="0.8">z</text>
    <text x="490" y="135" font-size="60" opacity="0.6">z</text>
  </g>

  

  <g>
    <ellipse cx="512" cy="615" rx="285" ry="130" fill="url(#pillowg)"/>
    <ellipse cx="512" cy="593" rx="285" ry="120" fill="#ffffff"/>
  </g>

  <g transform="translate(512 555) scale(1.24) translate(-512 -555)">
    <rect x="362" y="345" width="300" height="420" rx="64" fill="url(#phone)" stroke="#5ee0ff" stroke-width="14"/>
    <rect x="452" y="372" width="120" height="22" rx="11" fill="#0d1330"/>
    <g stroke="#5ee0ff" stroke-width="18" stroke-linecap="round" fill="none">
      <path d="M408 496 q36 -42 72 0"/>
      <path d="M544 496 q36 -42 72 0"/>
    </g>
    <path d="M462 592 q50 54 100 0" stroke="#5ee0ff" stroke-width="18" stroke-linecap="round" fill="none"/>
    <circle cx="410" cy="586" r="30" fill="#ff9fc0" opacity="0.8"/>
    <circle cx="614" cy="586" r="30" fill="#ff9fc0" opacity="0.8"/>
  </g>

  <g>
    <path d="M120 760 Q512 640 904 760 L904 1024 L120 1024 Z" fill="url(#blanket)"/>
    <path d="M120 760 Q512 640 904 760" stroke="#8df0ff" stroke-width="16" fill="none" stroke-linecap="round"/>
    <path d="M250 810 Q512 720 774 810" stroke="#0d7ea0" stroke-width="10" fill="none" opacity="0.5"/>
    <path d="M200 900 Q512 810 824 900" stroke="#0d7ea0" stroke-width="10" fill="none" opacity="0.4"/>
  </g>
</svg>
